<svg width="75" height="40" viewBox="0 0 75 40" fill="none" xmlns="http://www.w3.org/2000/svg">
<rect width="72" height="40" rx="2" fill="#282836"/>
<path d="M19 14V13H17V14V18.5H12.5H11.5V20.5H12.5H17V25V26H19V25V20.5H23.5H24.5V18.5H23.5H19V14Z" fill="#9452F7"/>
<path d="M38.5 0H72.5C73.6046 0 74.5 0.895431 74.5 2V38C74.5 39.1046 73.6046 40 72.5 40H38.5V0Z" fill="#353547"/>
<path d="M56 22.9772L56.4762 22.501L60.5217 18.4555L61 17.9772L60.0455 17.0227L59.5693 17.4989L56 21.0682L52.4307 17.501L51.9545 17.0227L51 17.9772L51.4762 18.4534L55.5217 22.4989L56 22.9772Z" fill="#F2F2F5"/>
</svg>
